<?xml version="1.0" encoding="UTF-8"?>
<svg width="419px" height="195px" viewBox="0 0 419 195" version="1.1" xmlns="http://www.w3.org/2000/svg" xmlns:xlink="http://www.w3.org/1999/xlink">
    <!-- Generator: Sketch 41.2 (35397) - http://www.bohemiancoding.com/sketch -->
    <title>Version 1</title>
    <desc>Created with Sketch.</desc>
    <defs></defs>
    <g id="Page-1" stroke="none" stroke-width="1" fill="none" fill-rule="evenodd">
        <g id="Version-1">
            <circle id="Oval" fill="#50E3C2" cx="87" cy="86.5" r="86.5"></circle>
            <path d="M115.700195,34.6132812 L80.1044922,161 L56.6376953,161 L74.5673828,98.3339844 L51.1884766,98.3339844 L34.0498047,34.6132812 L57.6044922,34.6132812 L74.5673828,97.6308594 L92.4091797,34.6132812 L115.700195,34.6132812 Z M144.52832,159.681641 L144.52832,124.349609 C136.149372,127.865252 131.959961,133.753865 131.959961,142.015625 C131.959961,150.160197 136.149372,156.04881 144.52832,159.681641 Z M116.754883,116.351562 L116.754883,94.2910156 L165.006836,94.2910156 L165.006836,161 L117.458008,161 C113.297831,154.730437 111.217773,148.402376 111.217773,142.015625 C111.217773,136.156221 113.297831,129.828159 117.458008,123.03125 L144.52832,123.03125 L144.52832,95.5214844 C134.801709,97.3378997 125.543989,104.28119 116.754883,116.351562 Z" id="Ya" fill="#FFFFFF"></path>
            <path d="M215.641602,160.384766 L215.641602,94.2910156 L236.208008,94.2910156 L236.208008,194.486328 L192.790039,194.486328 C190.329089,190.970686 188.161142,185.550818 186.286133,178.226562 L206.852539,178.226562 C208.844737,184.378937 211.774395,189.476542 215.641602,193.519531 L215.641602,161 L191.911133,161 C185.524382,152.855428 182.331055,140.873126 182.331055,125.052734 L182.331055,94.2910156 L202.897461,94.2910156 L202.897461,120.658203 C202.897461,131.146537 203.864248,139.203097 205.797852,144.828125 C207.731455,150.570341 211.012672,155.755836 215.641602,160.384766 Z M281.823242,159.681641 L281.823242,124.349609 C273.444294,127.865252 269.254883,133.753865 269.254883,142.015625 C269.254883,150.160197 273.444294,156.04881 281.823242,159.681641 Z M254.049805,116.351562 L254.049805,94.2910156 L302.301758,94.2910156 L302.301758,161 L254.75293,161 C250.592753,154.730437 248.512695,148.402376 248.512695,142.015625 C248.512695,136.156221 250.592753,129.828159 254.75293,123.03125 L281.823242,123.03125 L281.823242,95.5214844 C272.096631,97.3378997 262.838911,104.28119 254.049805,116.351562 Z M340.62207,96.1367188 L340.62207,161 L319.967773,161 L319.967773,71.5273438 L340.62207,71.5273438 L340.62207,94.2910156 L359.166992,94.2910156 L349.586914,110.990234 C347.008776,103.783167 344.020525,98.8320447 340.62207,96.1367188 Z M398.102539,159.681641 L398.102539,124.349609 C389.723591,127.865252 385.53418,133.753865 385.53418,142.015625 C385.53418,150.160197 389.723591,156.04881 398.102539,159.681641 Z M370.329102,116.351562 L370.329102,94.2910156 L418.581055,94.2910156 L418.581055,161 L371.032227,161 C366.87205,154.730437 364.791992,148.402376 364.791992,142.015625 C364.791992,136.156221 366.87205,129.828159 371.032227,123.03125 L398.102539,123.03125 L398.102539,95.5214844 C388.375928,97.3378997 379.118208,104.28119 370.329102,116.351562 Z" id="yata" fill="#50E3C2"></path>
        </g>
    </g>
</svg>