<?xml version="1.0" encoding="UTF-8"?>
<svg width="140px" height="57px" viewBox="0 0 140 57" version="1.1" xmlns="http://www.w3.org/2000/svg" xmlns:xlink="http://www.w3.org/1999/xlink">
    <!-- Generator: Sketch 41.2 (35397) - http://www.bohemiancoding.com/sketch -->
    <title>Yayata logo</title>
    <desc>Created with Sketch.</desc>
    <defs></defs>
    <g id="Symbols" stroke="none" stroke-width="1" fill="none" fill-rule="evenodd">
        <g id="Sidebar-/-Sidebar" transform="translate(-27.000000, 0.000000)">
            <g id="Sidebar-/-Logo" transform="translate(27.000000, 0.000000)">
                <ellipse id="Oval" fill="#0AA6C9" cx="28.5" cy="25.5" rx="28.5" ry="25.5"></ellipse>
                <path d="M39.057047,9 L26.8255034,46 L18.761745,46 L24.9228188,27.6543811 L16.8892617,27.6543811 L11,9 L19.0939597,9 L24.9228188,27.4485396 L31.0536913,9 L39.057047,9 Z M48.9630872,45.6140473 L48.9630872,35.2705146 C46.0838782,36.299727 44.6442953,38.0236319 44.6442953,40.4422809 C44.6442953,42.826623 46.0838782,44.5505278 48.9630872,45.6140473 Z M39.4194631,32.9290682 L39.4194631,26.4707928 L56,26.4707928 L56,46 L39.6610738,46 C38.2315365,44.1645713 37.5167785,42.3120168 37.5167785,40.4422809 C37.5167785,38.726927 38.2315365,36.8743725 39.6610738,34.8845619 L48.9630872,34.8845619 L48.9630872,26.8310153 C45.6207887,27.362775 42.4396124,29.395439 39.4194631,32.9290682 Z" id="Ya" fill="#FFFFFF"></path>
                <path d="M71.2797619,46.7383846 L71.2797619,26.8498928 L78.2440476,26.8498928 L78.2440476,57 L63.5416667,57 C62.7083292,55.9420962 61.9742095,54.3111857 61.3392857,52.1072194 L68.3035714,52.1072194 C68.978178,53.9585511 69.9702315,55.4924886 71.2797619,56.7090779 L71.2797619,46.9235168 L63.2440476,46.9235168 C61.0813384,44.4727064 60,40.8670717 60,36.1065046 L60,26.8498928 L66.9642857,26.8498928 L66.9642857,34.7841315 C66.9642857,37.9402112 67.2916634,40.3645376 67.9464286,42.0571837 C68.6011937,43.7850932 69.7122937,45.3454779 71.2797619,46.7383846 Z M93.6904762,46.5268049 L93.6904762,35.8949249 C90.8531604,36.9528287 89.4345238,38.724791 89.4345238,41.2108649 C89.4345238,43.6616753 90.8531604,45.4336376 93.6904762,46.5268049 Z M84.2857143,33.4882059 L84.2857143,26.8498928 L100.625,26.8498928 L100.625,46.9235168 L84.5238095,46.9235168 C83.1150723,45.0369217 82.4107143,43.1327235 82.4107143,41.2108649 C82.4107143,39.4476919 83.1150723,37.5434937 84.5238095,35.498213 L93.6904762,35.498213 L93.6904762,27.2201573 C90.3968089,27.7667409 87.2619196,29.8560695 84.2857143,33.4882059 Z M113.60119,27.4052895 L113.60119,46.9235168 L106.607143,46.9235168 L106.607143,20 L113.60119,20 L113.60119,26.8498928 L119.880952,26.8498928 L116.636905,31.8749107 C115.763885,29.7062079 114.75199,28.2163491 113.60119,27.4052895 Z M133.065476,46.5268049 L133.065476,35.8949249 C130.22816,36.9528287 128.809524,38.724791 128.809524,41.2108649 C128.809524,43.6616753 130.22816,45.4336376 133.065476,46.5268049 Z M123.660714,33.4882059 L123.660714,26.8498928 L140,26.8498928 L140,46.9235168 L123.89881,46.9235168 C122.490072,45.0369217 121.785714,43.1327235 121.785714,41.2108649 C121.785714,39.4476919 122.490072,37.5434937 123.89881,35.498213 L133.065476,35.498213 L133.065476,27.2201573 C129.771809,27.7667409 126.63692,29.8560695 123.660714,33.4882059 Z" id="yata" fill="#0AA6C9"></path>
            </g>
        </g>
    </g>
</svg>